<?xml version="1.0" standalone="no"?>
<!DOCTYPE svg PUBLIC "-//W3C//DTD SVG 20010904//EN"
 "http://www.w3.org/TR/2001/REC-SVG-20010904/DTD/svg10.dtd">
<svg version="1.0" xmlns="http://www.w3.org/2000/svg"
 width="512.000000pt" height="512.000000pt" viewBox="0 0 512.000000 512.000000"
 preserveAspectRatio="xMidYMid meet">
<metadata>
Created by potrace 1.11, written by Peter Selinger 2001-2013
</metadata>
<g transform="translate(0.000000,512.000000) scale(0.100000,-0.100000)"
fill="#000000" stroke="none">
<path d="M1630 4995 l0 -125 60 0 60 0 0 -60 0 -60 60 0 60 0 0 -65 0 -65 65
0 65 0 0 -60 0 -60 60 0 60 0 0 -65 0 -65 65 0 65 0 0 -60 0 -60 60 0 60 0 0
-190 0 -190 -185 0 -185 0 0 65 0 65 -375 0 -375 0 0 -65 0 -65 -125 0 -125 0
0 -60 0 -60 -60 0 -60 0 0 -65 0 -65 -65 0 -65 0 0 -60 0 -60 -60 0 -60 0 0
-125 0 -125 -65 0 -65 0 0 -185 0 -185 -60 0 -60 0 0 -440 0 -440 60 0 60 0 0
-185 0 -185 65 0 65 0 0 -125 0 -125 60 0 60 0 0 -125 0 -125 65 0 65 0 0
-125 0 -125 60 0 60 0 0 -125 0 -125 65 0 65 0 0 -65 0 -65 60 0 60 0 0 -60 0
-60 65 0 65 0 0 -65 0 -65 60 0 60 0 0 -60 0 -60 125 0 125 0 0 -65 0 -65 310
0 310 0 0 65 0 65 190 0 190 0 0 -65 0 -65 310 0 310 0 0 65 0 65 125 0 125 0
0 60 0 60 65 0 65 0 0 65 0 65 60 0 60 0 0 60 0 60 65 0 65 0 0 65 0 65 60 0
60 0 0 125 0 125 65 0 65 0 0 125 0 125 60 0 60 0 0 125 0 125 65 0 65 0 0
125 0 125 60 0 60 0 0 185 0 185 65 0 65 0 0 440 0 440 -65 0 -65 0 0 185 0
185 -60 0 -60 0 0 125 0 125 -65 0 -65 0 0 60 0 60 -60 0 -60 0 0 65 0 65 -65
0 -65 0 0 60 0 60 -125 0 -125 0 0 65 0 65 -375 0 -375 0 0 -65 0 -65 -125 0
-125 0 0 65 0 65 65 0 65 0 0 375 0 375 -65 0 -65 0 0 60 0 60 -125 0 -125 0
0 65 0 65 -185 0 -185 0 0 60 0 60 -310 0 -310 0 0 -125z m-250 -1555 l0 -60
60 0 60 0 0 -65 0 -65 -60 0 -60 0 0 -60 0 -60 -65 0 -65 0 0 60 0 60 -60 0
-60 0 0 65 0 65 60 0 60 0 0 60 0 60 65 0 65 0 0 -60z m250 -625 l0 -65 -65 0
-65 0 0 65 0 65 65 0 65 0 0 -65z"/>
</g>
</svg>
